{
    "asset" : {
        "generator" : "Khronos glTF Blender I/O v1.6.16",
        "version" : "2.0"
    },
    "scene" : 0,
    "scenes" : [
        {
            "name" : "Scene",
            "nodes" : [
                25,
                26,
                27
            ]
        }
    ],
    "nodes" : [
        {
            "name" : "Arkansas",
            "translation" : [
                0.36438000202178955,
                -0.34582000970840454,
                0
            ]
        },
        {
            "mesh" : 0,
            "name" : "Colorado_0"
        },
        {
            "children" : [
                1
            ],
            "name" : "Colorado",
            "translation" : [
                -2.0863499641418457,
                0.8073499798774719,
                0
            ]
        },
        {
            "name" : "Illinois",
            "translation" : [
                1.0169399976730347,
                1.0184400081634521,
                0
            ]
        },
        {
            "mesh" : 1,
            "name" : "Iowa_0"
        },
        {
            "children" : [
                4
            ],
            "name" : "Iowa",
            "translation" : [
                0.02442999929189682,
                1.2366600036621094,
                0
            ]
        },
        {
            "mesh" : 2,
            "name" : "Kansas_0"
        },
        {
            "children" : [
                6
            ],
            "name" : "Kansas",
            "translation" : [
                -0.9026399850845337,
                0.4621100127696991,
                0
            ]
        },
        {
            "name" : "Michigan1",
            "translation" : [
                0.9994000196456909,
                1.949970006942749,
                0
            ]
        },
        {
            "mesh" : 3,
            "name" : "Minnesota_0"
        },
        {
            "children" : [
                9
            ],
            "name" : "Minnesota",
            "translation" : [
                -0.05195999890565872,
                2.462779998779297,
                0
            ]
        },
        {
            "mesh" : 4,
            "name" : "Missouri_0"
        },
        {
            "children" : [
                11
            ],
            "name" : "Missouri",
            "translation" : [
                0.17790000140666962,
                0.5618600249290466,
                0
            ]
        },
        {
            "mesh" : 5,
            "name" : "Nebraska_0"
        },
        {
            "children" : [
                13
            ],
            "name" : "Nebraska",
            "translation" : [
                -1.1812100410461426,
                1.1652699708938599,
                0
            ]
        },
        {
            "name" : "New Mexico",
            "translation" : [
                -2.1825199127197266,
                -0.08524999767541885,
                0
            ]
        },
        {
            "mesh" : 6,
            "name" : "North dakota_0"
        },
        {
            "children" : [
                16
            ],
            "name" : "North dakota",
            "translation" : [
                -1.0827100276947021,
                2.514240026473999,
                0
            ]
        },
        {
            "name" : "Oklahoma",
            "translation" : [
                -1.116260051727295,
                -0.21511000394821167,
                0
            ]
        },
        {
            "mesh" : 7,
            "name" : "South Dakota_0"
        },
        {
            "children" : [
                19
            ],
            "name" : "South Dakota",
            "translation" : [
                -1.1272300481796265,
                1.8208999633789062,
                0
            ]
        },
        {
            "name" : "Wisconsin",
            "translation" : [
                0.7314199805259705,
                1.9685499668121338,
                0
            ]
        },
        {
            "mesh" : 8,
            "name" : "Wyoming_0"
        },
        {
            "children" : [
                22
            ],
            "name" : "Wyoming",
            "translation" : [
                -2.2581100463867188,
                1.766569972038269,
                0
            ]
        },
        {
            "children" : [
                0,
                2,
                3,
                5,
                7,
                8,
                10,
                12,
                14,
                15,
                17,
                18,
                20,
                21,
                23
            ],
            "name" : "Root"
        },
        {
            "children" : [
                24
            ],
            "name" : "Sketchfab_model",
            "rotation" : [
                -0.7071068286895752,
                0,
                0,
                0.7071068286895752
            ],
            "scale" : [
                0.5158483982086182,
                0.5158483982086182,
                0.5158483982086182
            ]
        },
        {
            "name" : "Light",
            "rotation" : [
                0.16907575726509094,
                0.7558803558349609,
                -0.27217137813568115,
                0.570947527885437
            ],
            "translation" : [
                4.076245307922363,
                5.903861999511719,
                -1.0054539442062378
            ]
        },
        {
            "name" : "Camera",
            "rotation" : [
                0.483536034822464,
                0.33687159419059753,
                -0.20870360732078552,
                0.7804827094078064
            ],
            "translation" : [
                7.358891487121582,
                4.958309173583984,
                6.925790786743164
            ]
        }
    ],
    "materials" : [
        {
            "doubleSided" : true,
            "name" : "s_7",
            "pbrMetallicRoughness" : {
                "baseColorFactor" : [
                    0.800000011920929,
                    0.800000011920929,
                    0.800000011920929,
                    1
                ],
                "metallicFactor" : 0,
                "roughnessFactor" : 0.5
            }
        },
        {
            "doubleSided" : true,
            "name" : "s_6",
            "pbrMetallicRoughness" : {
                "baseColorFactor" : [
                    0.800000011920929,
                    0.800000011920929,
                    0.800000011920929,
                    1
                ],
                "metallicFactor" : 0,
                "roughnessFactor" : 0.5
            }
        },
        {
            "doubleSided" : true,
            "name" : "s_8",
            "pbrMetallicRoughness" : {
                "baseColorFactor" : [
                    0.800000011920929,
                    0.800000011920929,
                    0.800000011920929,
                    1
                ],
                "metallicFactor" : 0,
                "roughnessFactor" : 0.5
            }
        },
        {
            "doubleSided" : true,
            "name" : "s_2",
            "pbrMetallicRoughness" : {
                "baseColorFactor" : [
                    0.800000011920929,
                    0.800000011920929,
                    0.800000011920929,
                    1
                ],
                "metallicFactor" : 0,
                "roughnessFactor" : 0.5
            }
        },
        {
            "doubleSided" : true,
            "name" : "s_9",
            "pbrMetallicRoughness" : {
                "baseColorFactor" : [
                    0.800000011920929,
                    0.800000011920929,
                    0.800000011920929,
                    1
                ],
                "metallicFactor" : 0,
                "roughnessFactor" : 0.5
            }
        },
        {
            "doubleSided" : true,
            "name" : "s_5",
            "pbrMetallicRoughness" : {
                "baseColorFactor" : [
                    0.800000011920929,
                    0.800000011920929,
                    0.800000011920929,
                    1
                ],
                "metallicFactor" : 0,
                "roughnessFactor" : 0.5
            }
        },
        {
            "doubleSided" : true,
            "name" : "s_1",
            "pbrMetallicRoughness" : {
                "baseColorFactor" : [
                    0.800000011920929,
                    0.800000011920929,
                    0.800000011920929,
                    1
                ],
                "metallicFactor" : 0,
                "roughnessFactor" : 0.5
            }
        },
        {
            "doubleSided" : true,
            "name" : "s_3",
            "pbrMetallicRoughness" : {
                "baseColorFactor" : [
                    0.800000011920929,
                    0.800000011920929,
                    0.800000011920929,
                    1
                ],
                "metallicFactor" : 0,
                "roughnessFactor" : 0.5
            }
        },
        {
            "doubleSided" : true,
            "name" : "s_4",
            "pbrMetallicRoughness" : {
                "baseColorFactor" : [
                    0.800000011920929,
                    0.800000011920929,
                    0.800000011920929,
                    1
                ],
                "metallicFactor" : 0,
                "roughnessFactor" : 0.5
            }
        }
    ],
    "meshes" : [
        {
            "name" : "Colorado_0",
            "primitives" : [
                {
                    "attributes" : {
                        "POSITION" : 0,
                        "NORMAL" : 1
                    },
                    "indices" : 2,
                    "material" : 0
                }
            ]
        },
        {
            "name" : "Iowa_0",
            "primitives" : [
                {
                    "attributes" : {
                        "POSITION" : 3,
                        "NORMAL" : 4
                    },
                    "indices" : 5,
                    "material" : 1
                }
            ]
        },
        {
            "name" : "Kansas_0",
            "primitives" : [
                {
                    "attributes" : {
                        "POSITION" : 6,
                        "NORMAL" : 7
                    },
                    "indices" : 8,
                    "material" : 2
                }
            ]
        },
        {
            "name" : "Minnesota_0",
            "primitives" : [
                {
                    "attributes" : {
                        "POSITION" : 9,
                        "NORMAL" : 10
                    },
                    "indices" : 11,
                    "material" : 3
                }
            ]
        },
        {
            "name" : "Missouri_0",
            "primitives" : [
                {
                    "attributes" : {
                        "POSITION" : 12,
                        "NORMAL" : 13
                    },
                    "indices" : 14,
                    "material" : 4
                }
            ]
        },
        {
            "name" : "Nebraska_0",
            "primitives" : [
                {
                    "attributes" : {
                        "POSITION" : 15,
                        "NORMAL" : 16
                    },
                    "indices" : 17,
                    "material" : 5
                }
            ]
        },
        {
            "name" : "North dakota_0",
            "primitives" : [
                {
                    "attributes" : {
                        "POSITION" : 18,
                        "NORMAL" : 19
                    },
                    "indices" : 20,
                    "material" : 6
                }
            ]
        },
        {
            "name" : "South Dakota_0",
            "primitives" : [
                {
                    "attributes" : {
                        "POSITION" : 21,
                        "NORMAL" : 22
                    },
                    "indices" : 23,
                    "material" : 7
                }
            ]
        },
        {
            "name" : "Wyoming_0",
            "primitives" : [
                {
                    "attributes" : {
                        "POSITION" : 24,
                        "NORMAL" : 25
                    },
                    "indices" : 26,
                    "material" : 8
                }
            ]
        }
    ],
    "accessors" : [
        {
            "bufferView" : 0,
            "componentType" : 5126,
            "count" : 34,
            "max" : [
                1.1902899742126465,
                0,
                0.10000000149011612
            ],
            "min" : [
                -0.11006999760866165,
                -1.0024199485778809,
                0
            ],
            "type" : "VEC3"
        },
        {
            "bufferView" : 1,
            "componentType" : 5126,
            "count" : 34,
            "type" : "VEC3"
        },
        {
            "bufferView" : 2,
            "componentType" : 5123,
            "count" : 48,
            "type" : "SCALAR"
        },
        {
            "bufferView" : 3,
            "componentType" : 5126,
            "count" : 225,
            "max" : [
                1.0562299489974976,
                0.014059999957680702,
                0.10000000149011612
            ],
            "min" : [
                -0.00749000022187829,
                -0.70524001121521,
                0
            ],
            "type" : "VEC3"
        },
        {
            "bufferView" : 4,
            "componentType" : 5126,
            "count" : 225,
            "type" : "VEC3"
        },
        {
            "bufferView" : 5,
            "componentType" : 5123,
            "count" : 300,
            "type" : "SCALAR"
        },
        {
            "bufferView" : 6,
            "componentType" : 5126,
            "count" : 71,
            "max" : [
                1.2572300434112549,
                0,
                0.10000000149011612
            ],
            "min" : [
                -0.04885999858379364,
                -0.6889700293540955,
                0
            ],
            "type" : "VEC3"
        },
        {
            "bufferView" : 7,
            "componentType" : 5126,
            "count" : 71,
            "type" : "VEC3"
        },
        {
            "bufferView" : 8,
            "componentType" : 5123,
            "count" : 96,
            "type" : "SCALAR"
        },
        {
            "bufferView" : 9,
            "componentType" : 5126,
            "count" : 460,
            "max" : [
                1.1658799648284912,
                0.07591000199317932,
                0.10000000149011612
            ],
            "min" : [
                -0.006550000049173832,
                -1.2117999792099,
                0
            ],
            "type" : "VEC3"
        },
        {
            "bufferView" : 10,
            "componentType" : 5126,
            "count" : 460,
            "type" : "VEC3"
        },
        {
            "bufferView" : 11,
            "componentType" : 5123,
            "count" : 600,
            "type" : "SCALAR"
        },
        {
            "bufferView" : 12,
            "componentType" : 5126,
            "count" : 211,
            "max" : [
                1.1664799451828003,
                0.02450999990105629,
                0.10000000149011612
            ],
            "min" : [
                -0.007089999970048666,
                -0.9924399852752686,
                0
            ],
            "type" : "VEC3"
        },
        {
            "bufferView" : 13,
            "componentType" : 5126,
            "count" : 211,
            "type" : "VEC3"
        },
        {
            "bufferView" : 14,
            "componentType" : 5123,
            "count" : 372,
            "type" : "SCALAR"
        },
        {
            "bufferView" : 15,
            "componentType" : 5126,
            "count" : 153,
            "max" : [
                1.3868800401687622,
                0.008469999767839909,
                0.10000000149011612
            ],
            "min" : [
                -0.036400001496076584,
                -0.7088199853897095,
                0
            ],
            "type" : "VEC3"
        },
        {
            "bufferView" : 16,
            "componentType" : 5126,
            "count" : 153,
            "type" : "VEC3"
        },
        {
            "bufferView" : 17,
            "componentType" : 5123,
            "count" : 192,
            "type" : "SCALAR"
        },
        {
            "bufferView" : 18,
            "componentType" : 5126,
            "count" : 99,
            "max" : [
                1.1148099899291992,
                0,
                0.10000000149011612
            ],
            "min" : [
                -0.052000001072883606,
                -0.747409999370575,
                0
            ],
            "type" : "VEC3"
        },
        {
            "bufferView" : 19,
            "componentType" : 5126,
            "count" : 99,
            "type" : "VEC3"
        },
        {
            "bufferView" : 20,
            "componentType" : 5123,
            "count" : 132,
            "type" : "SCALAR"
        },
        {
            "bufferView" : 21,
            "componentType" : 5126,
            "count" : 149,
            "max" : [
                1.1666899919509888,
                0,
                0.10000000149011612
            ],
            "min" : [
                -0.04918999969959259,
                -0.8040500283241272,
                0
            ],
            "type" : "VEC3"
        },
        {
            "bufferView" : 22,
            "componentType" : 5126,
            "count" : 149,
            "type" : "VEC3"
        },
        {
            "bufferView" : 23,
            "componentType" : 5123,
            "count" : 192,
            "type" : "SCALAR"
        },
        {
            "bufferView" : 24,
            "componentType" : 5126,
            "count" : 39,
            "max" : [
                1.1012200117111206,
                0,
                0.10000000149011612
            ],
            "min" : [
                -0.14712999761104584,
                -1.0346699953079224,
                0
            ],
            "type" : "VEC3"
        },
        {
            "bufferView" : 25,
            "componentType" : 5126,
            "count" : 39,
            "type" : "VEC3"
        },
        {
            "bufferView" : 26,
            "componentType" : 5123,
            "count" : 48,
            "type" : "SCALAR"
        }
    ],
    "bufferViews" : [
        {
            "buffer" : 0,
            "byteLength" : 408,
            "byteOffset" : 0
        },
        {
            "buffer" : 0,
            "byteLength" : 408,
            "byteOffset" : 408
        },
        {
            "buffer" : 0,
            "byteLength" : 96,
            "byteOffset" : 816
        },
        {
            "buffer" : 0,
            "byteLength" : 2700,
            "byteOffset" : 912
        },
        {
            "buffer" : 0,
            "byteLength" : 2700,
            "byteOffset" : 3612
        },
        {
            "buffer" : 0,
            "byteLength" : 600,
            "byteOffset" : 6312
        },
        {
            "buffer" : 0,
            "byteLength" : 852,
            "byteOffset" : 6912
        },
        {
            "buffer" : 0,
            "byteLength" : 852,
            "byteOffset" : 7764
        },
        {
            "buffer" : 0,
            "byteLength" : 192,
            "byteOffset" : 8616
        },
        {
            "buffer" : 0,
            "byteLength" : 5520,
            "byteOffset" : 8808
        },
        {
            "buffer" : 0,
            "byteLength" : 5520,
            "byteOffset" : 14328
        },
        {
            "buffer" : 0,
            "byteLength" : 1200,
            "byteOffset" : 19848
        },
        {
            "buffer" : 0,
            "byteLength" : 2532,
            "byteOffset" : 21048
        },
        {
            "buffer" : 0,
            "byteLength" : 2532,
            "byteOffset" : 23580
        },
        {
            "buffer" : 0,
            "byteLength" : 744,
            "byteOffset" : 26112
        },
        {
            "buffer" : 0,
            "byteLength" : 1836,
            "byteOffset" : 26856
        },
        {
            "buffer" : 0,
            "byteLength" : 1836,
            "byteOffset" : 28692
        },
        {
            "buffer" : 0,
            "byteLength" : 384,
            "byteOffset" : 30528
        },
        {
            "buffer" : 0,
            "byteLength" : 1188,
            "byteOffset" : 30912
        },
        {
            "buffer" : 0,
            "byteLength" : 1188,
            "byteOffset" : 32100
        },
        {
            "buffer" : 0,
            "byteLength" : 264,
            "byteOffset" : 33288
        },
        {
            "buffer" : 0,
            "byteLength" : 1788,
            "byteOffset" : 33552
        },
        {
            "buffer" : 0,
            "byteLength" : 1788,
            "byteOffset" : 35340
        },
        {
            "buffer" : 0,
            "byteLength" : 384,
            "byteOffset" : 37128
        },
        {
            "buffer" : 0,
            "byteLength" : 468,
            "byteOffset" : 37512
        },
        {
            "buffer" : 0,
            "byteLength" : 468,
            "byteOffset" : 37980
        },
        {
            "buffer" : 0,
            "byteLength" : 96,
            "byteOffset" : 38448
        }
    ],
    "buffers" : [
        {
            "byteLength" : 38544,
            "uri" : "data:application/octet-stream;base64,"
        }
    ]
}
